<svg width="87" height="28" viewBox="0 0 87 28" fill="none" xmlns="http://www.w3.org/2000/svg">
<g clip-path="url(#clip0_1460_129)">
<rect width="28" height="28" rx="2.13333" fill="white"/>
<path d="M10.6113 19.15C9.81131 19.15 9.06631 19.02 8.37631 18.76C7.69631 18.49 7.10131 18.115 6.59131 17.635C6.09131 17.145 5.70131 16.57 5.42131 15.91C5.14131 15.25 5.00131 14.53 5.00131 13.75C5.00131 12.97 5.14131 12.25 5.42131 11.59C5.70131 10.93 6.09631 10.36 6.60631 9.88C7.11631 9.39 7.71131 9.015 8.39131 8.755C9.07131 8.485 9.81631 8.35 10.6263 8.35C11.4863 8.35 12.2713 8.5 12.9813 8.8C13.6913 9.09 14.2913 9.525 14.7813 10.105L13.5213 11.29C13.1413 10.88 12.7163 10.575 12.2463 10.375C11.7763 10.165 11.2663 10.06 10.7163 10.06C10.1663 10.06 9.66131 10.15 9.20131 10.33C8.75131 10.51 8.35631 10.765 8.01631 11.095C7.68631 11.425 7.42631 11.815 7.23631 12.265C7.05631 12.715 6.96631 13.21 6.96631 13.75C6.96631 14.29 7.05631 14.785 7.23631 15.235C7.42631 15.685 7.68631 16.075 8.01631 16.405C8.35631 16.735 8.75131 16.99 9.20131 17.17C9.66131 17.35 10.1663 17.44 10.7163 17.44C11.2663 17.44 11.7763 17.34 12.2463 17.14C12.7163 16.93 13.1413 16.615 13.5213 16.195L14.7813 17.395C14.2913 17.965 13.6913 18.4 12.9813 18.7C12.2713 19 11.4813 19.15 10.6113 19.15ZM19.8901 19.15C19.0701 19.15 18.2851 19.035 17.5351 18.805C16.7851 18.565 16.1901 18.26 15.7501 17.89L16.4251 16.375C16.8451 16.705 17.3651 16.98 17.9851 17.2C18.6051 17.42 19.2401 17.53 19.8901 17.53C20.4401 17.53 20.8851 17.47 21.2251 17.35C21.5651 17.23 21.8151 17.07 21.9751 16.87C22.1351 16.66 22.2151 16.425 22.2151 16.165C22.2151 15.845 22.1001 15.59 21.8701 15.4C21.6401 15.2 21.3401 15.045 20.9701 14.935C20.6101 14.815 20.2051 14.705 19.7551 14.605C19.3151 14.505 18.8701 14.39 18.4201 14.26C17.9801 14.12 17.5751 13.945 17.2051 13.735C16.8451 13.515 16.5501 13.225 16.3201 12.865C16.0901 12.505 15.9751 12.045 15.9751 11.485C15.9751 10.915 16.1251 10.395 16.4251 9.925C16.7351 9.445 17.2001 9.065 17.8201 8.785C18.4501 8.495 19.2451 8.35 20.2051 8.35C20.8351 8.35 21.4601 8.43 22.0801 8.59C22.7001 8.75 23.2401 8.98 23.7001 9.28L23.0851 10.795C22.6151 10.515 22.1301 10.31 21.6301 10.18C21.1301 10.04 20.6501 9.97 20.1901 9.97C19.6501 9.97 19.2101 10.035 18.8701 10.165C18.5401 10.295 18.2951 10.465 18.1351 10.675C17.9851 10.885 17.9101 11.125 17.9101 11.395C17.9101 11.715 18.0201 11.975 18.2401 12.175C18.4701 12.365 18.7651 12.515 19.1251 12.625C19.4951 12.735 19.9051 12.845 20.3551 12.955C20.8051 13.055 21.2501 13.17 21.6901 13.3C22.1401 13.43 22.5451 13.6 22.9051 13.81C23.2751 14.02 23.5701 14.305 23.7901 14.665C24.0201 15.025 24.1351 15.48 24.1351 16.03C24.1351 16.59 23.9801 17.11 23.6701 17.59C23.3701 18.06 22.9051 18.44 22.2751 18.73C21.6451 19.01 20.8501 19.15 19.8901 19.15Z" fill="black"/>
</g>
<path d="M35.598 11.11C35.0113 11.11 34.465 11.0147 33.959 10.824C33.4603 10.626 33.024 10.351 32.65 9.999C32.2833 9.63967 31.9973 9.218 31.792 8.734C31.5867 8.25 31.484 7.722 31.484 7.15C31.484 6.578 31.5867 6.05 31.792 5.566C31.9973 5.082 32.287 4.664 32.661 4.312C33.035 3.95267 33.4713 3.67767 33.97 3.487C34.4687 3.289 35.015 3.19 35.609 3.19C36.2397 3.19 36.8153 3.3 37.336 3.52C37.8567 3.73267 38.2967 4.05167 38.656 4.477L37.732 5.346C37.4533 5.04533 37.1417 4.82167 36.797 4.675C36.4523 4.521 36.0783 4.444 35.675 4.444C35.2717 4.444 34.9013 4.51 34.564 4.642C34.234 4.774 33.9443 4.961 33.695 5.203C33.453 5.445 33.2623 5.731 33.123 6.061C32.991 6.391 32.925 6.754 32.925 7.15C32.925 7.546 32.991 7.909 33.123 8.239C33.2623 8.569 33.453 8.855 33.695 9.097C33.9443 9.339 34.234 9.526 34.564 9.658C34.9013 9.79 35.2717 9.856 35.675 9.856C36.0783 9.856 36.4523 9.78267 36.797 9.636C37.1417 9.482 37.4533 9.251 37.732 8.943L38.656 9.823C38.2967 10.241 37.8567 10.56 37.336 10.78C36.8153 11 36.236 11.11 35.598 11.11ZM43.4595 11V9.812L43.3825 9.559V7.48C43.3825 7.07667 43.2615 6.765 43.0195 6.545C42.7775 6.31767 42.4108 6.204 41.9195 6.204C41.5895 6.204 41.2631 6.25533 40.9405 6.358C40.6251 6.46067 40.3575 6.60367 40.1375 6.787L39.5985 5.786C39.9138 5.544 40.2878 5.36433 40.7205 5.247C41.1605 5.12233 41.6151 5.06 42.0845 5.06C42.9351 5.06 43.5915 5.26533 44.0535 5.676C44.5228 6.07933 44.7575 6.70633 44.7575 7.557V11H43.4595ZM41.6115 11.077C41.1715 11.077 40.7865 11.0037 40.4565 10.857C40.1265 10.703 39.8698 10.494 39.6865 10.23C39.5105 9.95867 39.4225 9.65433 39.4225 9.317C39.4225 8.987 39.4995 8.69 39.6535 8.426C39.8148 8.162 40.0751 7.953 40.4345 7.799C40.7938 7.645 41.2705 7.568 41.8645 7.568H43.5695V8.481H41.9635C41.4941 8.481 41.1788 8.558 41.0175 8.712C40.8561 8.85867 40.7755 9.042 40.7755 9.262C40.7755 9.51133 40.8745 9.70933 41.0725 9.856C41.2705 10.0027 41.5455 10.076 41.8975 10.076C42.2348 10.076 42.5355 9.999 42.7995 9.845C43.0708 9.691 43.2651 9.46367 43.3825 9.163L43.6135 9.988C43.4815 10.3327 43.2431 10.6003 42.8985 10.791C42.5611 10.9817 42.1321 11.077 41.6115 11.077ZM49.8551 5.06C50.3245 5.06 50.7425 5.15167 51.1091 5.335C51.4831 5.51833 51.7765 5.80067 51.9891 6.182C52.2018 6.556 52.3081 7.04 52.3081 7.634V11H50.9331V7.81C50.9331 7.28933 50.8085 6.90067 50.5591 6.644C50.3171 6.38733 49.9761 6.259 49.5361 6.259C49.2135 6.259 48.9275 6.325 48.6781 6.457C48.4288 6.589 48.2345 6.787 48.0951 7.051C47.9631 7.30767 47.8971 7.634 47.8971 8.03V11H46.5221V5.126H47.8311V6.71L47.6001 6.226C47.8055 5.852 48.1025 5.566 48.4911 5.368C48.8871 5.16267 49.3418 5.06 49.8551 5.06ZM57.6714 11V9.812L57.5944 9.559V7.48C57.5944 7.07667 57.4734 6.765 57.2314 6.545C56.9894 6.31767 56.6227 6.204 56.1314 6.204C55.8014 6.204 55.4751 6.25533 55.1524 6.358C54.8371 6.46067 54.5694 6.60367 54.3494 6.787L53.8104 5.786C54.1257 5.544 54.4997 5.36433 54.9324 5.247C55.3724 5.12233 55.8271 5.06 56.2964 5.06C57.1471 5.06 57.8034 5.26533 58.2654 5.676C58.7347 6.07933 58.9694 6.70633 58.9694 7.557V11H57.6714ZM55.8234 11.077C55.3834 11.077 54.9984 11.0037 54.6684 10.857C54.3384 10.703 54.0817 10.494 53.8984 10.23C53.7224 9.95867 53.6344 9.65433 53.6344 9.317C53.6344 8.987 53.7114 8.69 53.8654 8.426C54.0267 8.162 54.2871 7.953 54.6464 7.799C55.0057 7.645 55.4824 7.568 56.0764 7.568H57.7814V8.481H56.1754C55.7061 8.481 55.3907 8.558 55.2294 8.712C55.0681 8.85867 54.9874 9.042 54.9874 9.262C54.9874 9.51133 55.0864 9.70933 55.2844 9.856C55.4824 10.0027 55.7574 10.076 56.1094 10.076C56.4467 10.076 56.7474 9.999 57.0114 9.845C57.2827 9.691 57.4771 9.46367 57.5944 9.163L57.8254 9.988C57.6934 10.3327 57.4551 10.6003 57.1104 10.791C56.7731 10.9817 56.3441 11.077 55.8234 11.077ZM62.1886 11L59.6696 5.126H61.0996L63.2666 10.307H62.5626L64.8066 5.126H66.1266L63.6076 11H62.1886ZM69.5859 11.077C68.9332 11.077 68.3612 10.9487 67.8699 10.692C67.3859 10.428 67.0082 10.0687 66.7369 9.614C66.4729 9.15933 66.3409 8.64233 66.3409 8.063C66.3409 7.47633 66.4692 6.95933 66.7259 6.512C66.9899 6.05733 67.3492 5.70167 67.8039 5.445C68.2659 5.18833 68.7902 5.06 69.3769 5.06C69.9489 5.06 70.4585 5.18467 70.9059 5.434C71.3532 5.68333 71.7052 6.03533 71.9619 6.49C72.2185 6.94467 72.3469 7.48 72.3469 8.096C72.3469 8.15467 72.3432 8.22067 72.3359 8.294C72.3359 8.36733 72.3322 8.437 72.3249 8.503H67.4299V7.59H71.5989L71.0599 7.876C71.0672 7.53867 70.9975 7.24167 70.8509 6.985C70.7042 6.72833 70.5025 6.52667 70.2459 6.38C69.9965 6.23333 69.7069 6.16 69.3769 6.16C69.0395 6.16 68.7425 6.23333 68.4859 6.38C68.2365 6.52667 68.0385 6.732 67.8919 6.996C67.7525 7.25267 67.6829 7.557 67.6829 7.909V8.129C67.6829 8.481 67.7635 8.79267 67.9249 9.064C68.0862 9.33533 68.3135 9.54433 68.6069 9.691C68.9002 9.83767 69.2375 9.911 69.6189 9.911C69.9489 9.911 70.2459 9.85967 70.5099 9.757C70.7739 9.65433 71.0085 9.493 71.2139 9.273L71.9509 10.12C71.6869 10.428 71.3532 10.6663 70.9499 10.835C70.5539 10.9963 70.0992 11.077 69.5859 11.077ZM73.6676 11V5.126H74.9766V6.743L74.8226 6.27C74.9986 5.874 75.2736 5.57333 75.6476 5.368C76.029 5.16267 76.502 5.06 77.0666 5.06V6.369C77.008 6.35433 76.953 6.347 76.9016 6.347C76.8503 6.33967 76.799 6.336 76.7476 6.336C76.227 6.336 75.8126 6.49 75.5046 6.798C75.1966 7.09867 75.0426 7.54967 75.0426 8.151V11H73.6676ZM81.4331 11V9.812L81.3561 9.559V7.48C81.3561 7.07667 81.2351 6.765 80.9931 6.545C80.7511 6.31767 80.3844 6.204 79.8931 6.204C79.5631 6.204 79.2368 6.25533 78.9141 6.358C78.5988 6.46067 78.3311 6.60367 78.1111 6.787L77.5721 5.786C77.8874 5.544 78.2614 5.36433 78.6941 5.247C79.1341 5.12233 79.5888 5.06 80.0581 5.06C80.9088 5.06 81.5651 5.26533 82.0271 5.676C82.4964 6.07933 82.7311 6.70633 82.7311 7.557V11H81.4331ZM79.5851 11.077C79.1451 11.077 78.7601 11.0037 78.4301 10.857C78.1001 10.703 77.8434 10.494 77.6601 10.23C77.4841 9.95867 77.3961 9.65433 77.3961 9.317C77.3961 8.987 77.4731 8.69 77.6271 8.426C77.7884 8.162 78.0488 7.953 78.4081 7.799C78.7674 7.645 79.2441 7.568 79.8381 7.568H81.5431V8.481H79.9371C79.4678 8.481 79.1524 8.558 78.9911 8.712C78.8298 8.85867 78.7491 9.042 78.7491 9.262C78.7491 9.51133 78.8481 9.70933 79.0461 9.856C79.2441 10.0027 79.5191 10.076 79.8711 10.076C80.2084 10.076 80.5091 9.999 80.7731 9.845C81.0444 9.691 81.2388 9.46367 81.3561 9.163L81.5871 9.988C81.4551 10.3327 81.2168 10.6003 80.8721 10.791C80.5348 10.9817 80.1058 11.077 79.5851 11.077ZM84.4958 11V2.838H85.8708V11H84.4958ZM34.421 24.11C33.8197 24.11 33.244 24.0257 32.694 23.857C32.144 23.681 31.7077 23.4573 31.385 23.186L31.88 22.075C32.188 22.317 32.5693 22.5187 33.024 22.68C33.4787 22.8413 33.9443 22.922 34.421 22.922C34.8243 22.922 35.1507 22.878 35.4 22.79C35.6493 22.702 35.8327 22.5847 35.95 22.438C36.0673 22.284 36.126 22.1117 36.126 21.921C36.126 21.6863 36.0417 21.4993 35.873 21.36C35.7043 21.2133 35.4843 21.0997 35.213 21.019C34.949 20.931 34.652 20.8503 34.322 20.777C33.9993 20.7037 33.673 20.6193 33.343 20.524C33.0203 20.4213 32.7233 20.293 32.452 20.139C32.188 19.9777 31.9717 19.765 31.803 19.501C31.6343 19.237 31.55 18.8997 31.55 18.489C31.55 18.071 31.66 17.6897 31.88 17.345C32.1073 16.993 32.4483 16.7143 32.903 16.509C33.365 16.2963 33.948 16.19 34.652 16.19C35.114 16.19 35.5723 16.2487 36.027 16.366C36.4817 16.4833 36.8777 16.652 37.215 16.872L36.764 17.983C36.4193 17.7777 36.0637 17.6273 35.697 17.532C35.3303 17.4293 34.9783 17.378 34.641 17.378C34.245 17.378 33.9223 17.4257 33.673 17.521C33.431 17.6163 33.2513 17.741 33.134 17.895C33.024 18.049 32.969 18.225 32.969 18.423C32.969 18.6577 33.0497 18.8483 33.211 18.995C33.3797 19.1343 33.596 19.2443 33.86 19.325C34.1313 19.4057 34.432 19.4863 34.762 19.567C35.092 19.6403 35.4183 19.7247 35.741 19.82C36.071 19.9153 36.368 20.04 36.632 20.194C36.9033 20.348 37.1197 20.557 37.281 20.821C37.4497 21.085 37.534 21.4187 37.534 21.822C37.534 22.2327 37.4203 22.614 37.193 22.966C36.973 23.3107 36.632 23.5893 36.17 23.802C35.708 24.0073 35.125 24.11 34.421 24.11ZM41.46 24.077C40.8586 24.077 40.3233 23.9487 39.854 23.692C39.3846 23.428 39.0143 23.0687 38.743 22.614C38.4716 22.1593 38.336 21.6423 38.336 21.063C38.336 20.4763 38.4716 19.9593 38.743 19.512C39.0143 19.0573 39.3846 18.7017 39.854 18.445C40.3233 18.1883 40.8586 18.06 41.46 18.06C42.0686 18.06 42.6076 18.1883 43.077 18.445C43.5536 18.7017 43.924 19.0537 44.188 19.501C44.4593 19.9483 44.595 20.469 44.595 21.063C44.595 21.6423 44.4593 22.1593 44.188 22.614C43.924 23.0687 43.5536 23.428 43.077 23.692C42.6076 23.9487 42.0686 24.077 41.46 24.077ZM41.46 22.9C41.7973 22.9 42.098 22.8267 42.362 22.68C42.626 22.5333 42.8313 22.3207 42.978 22.042C43.132 21.7633 43.209 21.437 43.209 21.063C43.209 20.6817 43.132 20.3553 42.978 20.084C42.8313 19.8053 42.626 19.5927 42.362 19.446C42.098 19.2993 41.801 19.226 41.471 19.226C41.1336 19.226 40.833 19.2993 40.569 19.446C40.3123 19.5927 40.107 19.8053 39.953 20.084C39.799 20.3553 39.722 20.6817 39.722 21.063C39.722 21.437 39.799 21.7633 39.953 22.042C40.107 22.3207 40.3123 22.5333 40.569 22.68C40.833 22.8267 41.13 22.9 41.46 22.9ZM45.9098 24V15.838H47.2848V24H45.9098ZM51.5755 24.077C51.0768 24.077 50.6368 23.9853 50.2555 23.802C49.8742 23.6113 49.5772 23.3253 49.3645 22.944C49.1518 22.5553 49.0455 22.0677 49.0455 21.481V18.126H50.4205V21.294C50.4205 21.822 50.5378 22.218 50.7725 22.482C51.0145 22.7387 51.3555 22.867 51.7955 22.867C52.1182 22.867 52.3968 22.801 52.6315 22.669C52.8735 22.537 53.0605 22.339 53.1925 22.075C53.3318 21.811 53.4015 21.4847 53.4015 21.096V18.126H54.7765V24H53.4675V22.416L53.6985 22.9C53.5005 23.2813 53.2108 23.5747 52.8295 23.78C52.4482 23.978 52.0302 24.077 51.5755 24.077ZM58.7878 24.077C58.1425 24.077 57.6438 23.912 57.2918 23.582C56.9398 23.2447 56.7638 22.7497 56.7638 22.097V16.828H58.1388V22.064C58.1388 22.3427 58.2085 22.559 58.3478 22.713C58.4945 22.867 58.6961 22.944 58.9528 22.944C59.2608 22.944 59.5175 22.8633 59.7228 22.702L60.1078 23.681C59.9465 23.813 59.7485 23.912 59.5138 23.978C59.2791 24.044 59.0371 24.077 58.7878 24.077ZM55.7958 19.27V18.17H59.7118V19.27H55.7958ZM61.2389 24V18.126H62.6139V24H61.2389ZM61.9319 17.158C61.6752 17.158 61.4626 17.0773 61.2939 16.916C61.1326 16.7547 61.0519 16.5603 61.0519 16.333C61.0519 16.0983 61.1326 15.904 61.2939 15.75C61.4626 15.5887 61.6752 15.508 61.9319 15.508C62.1886 15.508 62.3976 15.585 62.5589 15.739C62.7276 15.8857 62.8119 16.0727 62.8119 16.3C62.8119 16.542 62.7312 16.7473 62.5699 16.916C62.4086 17.0773 62.1959 17.158 61.9319 17.158ZM67.0586 24.077C66.4573 24.077 65.9219 23.9487 65.4526 23.692C64.9833 23.428 64.6129 23.0687 64.3416 22.614C64.0703 22.1593 63.9346 21.6423 63.9346 21.063C63.9346 20.4763 64.0703 19.9593 64.3416 19.512C64.6129 19.0573 64.9833 18.7017 65.4526 18.445C65.9219 18.1883 66.4573 18.06 67.0586 18.06C67.6673 18.06 68.2063 18.1883 68.6756 18.445C69.1523 18.7017 69.5226 19.0537 69.7866 19.501C70.0579 19.9483 70.1936 20.469 70.1936 21.063C70.1936 21.6423 70.0579 22.1593 69.7866 22.614C69.5226 23.0687 69.1523 23.428 68.6756 23.692C68.2063 23.9487 67.6673 24.077 67.0586 24.077ZM67.0586 22.9C67.3959 22.9 67.6966 22.8267 67.9606 22.68C68.2246 22.5333 68.4299 22.3207 68.5766 22.042C68.7306 21.7633 68.8076 21.437 68.8076 21.063C68.8076 20.6817 68.7306 20.3553 68.5766 20.084C68.4299 19.8053 68.2246 19.5927 67.9606 19.446C67.6966 19.2993 67.3996 19.226 67.0696 19.226C66.7323 19.226 66.4316 19.2993 66.1676 19.446C65.9109 19.5927 65.7056 19.8053 65.5516 20.084C65.3976 20.3553 65.3206 20.6817 65.3206 21.063C65.3206 21.437 65.3976 21.7633 65.5516 22.042C65.7056 22.3207 65.9109 22.5333 66.1676 22.68C66.4316 22.8267 66.7286 22.9 67.0586 22.9ZM74.8414 18.06C75.3108 18.06 75.7288 18.1517 76.0954 18.335C76.4694 18.5183 76.7628 18.8007 76.9754 19.182C77.1881 19.556 77.2944 20.04 77.2944 20.634V24H75.9194V20.81C75.9194 20.2893 75.7948 19.9007 75.5454 19.644C75.3034 19.3873 74.9624 19.259 74.5224 19.259C74.1998 19.259 73.9138 19.325 73.6644 19.457C73.4151 19.589 73.2208 19.787 73.0814 20.051C72.9494 20.3077 72.8834 20.634 72.8834 21.03V24H71.5084V18.126H72.8174V19.71L72.5864 19.226C72.7918 18.852 73.0888 18.566 73.4774 18.368C73.8734 18.1627 74.3281 18.06 74.8414 18.06ZM80.8537 24.077C80.3624 24.077 79.8894 24.0147 79.4347 23.89C78.9874 23.758 78.6317 23.6003 78.3677 23.417L78.8957 22.372C79.1597 22.5407 79.4751 22.68 79.8417 22.79C80.2084 22.9 80.5751 22.955 80.9417 22.955C81.3744 22.955 81.6861 22.8963 81.8767 22.779C82.0747 22.6617 82.1737 22.504 82.1737 22.306C82.1737 22.1447 82.1077 22.0237 81.9757 21.943C81.8437 21.855 81.6714 21.789 81.4587 21.745C81.2461 21.701 81.0077 21.6607 80.7437 21.624C80.4871 21.5873 80.2267 21.5397 79.9627 21.481C79.7061 21.415 79.4714 21.3233 79.2587 21.206C79.0461 21.0813 78.8737 20.9163 78.7417 20.711C78.6097 20.5057 78.5437 20.2343 78.5437 19.897C78.5437 19.523 78.6501 19.2003 78.8627 18.929C79.0754 18.6503 79.3724 18.4377 79.7537 18.291C80.1424 18.137 80.6007 18.06 81.1287 18.06C81.5247 18.06 81.9244 18.104 82.3277 18.192C82.7311 18.28 83.0647 18.4047 83.3287 18.566L82.8007 19.611C82.5221 19.4423 82.2397 19.3287 81.9537 19.27C81.6751 19.204 81.3964 19.171 81.1177 19.171C80.6997 19.171 80.3881 19.2333 80.1827 19.358C79.9847 19.4827 79.8857 19.6403 79.8857 19.831C79.8857 20.007 79.9517 20.139 80.0837 20.227C80.2157 20.315 80.3881 20.3847 80.6007 20.436C80.8134 20.4873 81.0481 20.5313 81.3047 20.568C81.5687 20.5973 81.8291 20.645 82.0857 20.711C82.3424 20.777 82.5771 20.8687 82.7897 20.986C83.0097 21.096 83.1857 21.2537 83.3177 21.459C83.4497 21.6643 83.5157 21.932 83.5157 22.262C83.5157 22.6287 83.4057 22.9477 83.1857 23.219C82.9731 23.4903 82.6687 23.703 82.2727 23.857C81.8767 24.0037 81.4037 24.077 80.8537 24.077Z" fill="white"/>
<defs>
<clipPath id="clip0_1460_129">
<rect width="28" height="28" fill="white"/>
</clipPath>
</defs>
</svg>
