<svg width="64" height="64" viewBox="0 0 64 64" fill="none" xmlns="http://www.w3.org/2000/svg">
<g clip-path="url(#clip0_1475_8316)">
<rect width="64" height="64" rx="2.13333" fill="white"/>
<path d="M22.9264 44.35C21.0597 44.35 19.3214 44.0467 17.7114 43.44C16.1247 42.81 14.7364 41.935 13.5464 40.815C12.3797 39.6717 11.4697 38.33 10.8164 36.79C10.1631 35.25 9.83639 33.57 9.83639 31.75C9.83639 29.93 10.1631 28.25 10.8164 26.71C11.4697 25.17 12.3914 23.84 13.5814 22.72C14.7714 21.5767 16.1597 20.7017 17.7464 20.095C19.3331 19.465 21.0714 19.15 22.9614 19.15C24.9681 19.15 26.7997 19.5 28.4564 20.2C30.1131 20.8767 31.5131 21.8917 32.6564 23.245L29.7164 26.01C28.8297 25.0533 27.8381 24.3417 26.7414 23.875C25.6447 23.385 24.4547 23.14 23.1714 23.14C21.8881 23.14 20.7097 23.35 19.6364 23.77C18.5864 24.19 17.6647 24.785 16.8714 25.555C16.1014 26.325 15.4947 27.235 15.0514 28.285C14.6314 29.335 14.4214 30.49 14.4214 31.75C14.4214 33.01 14.6314 34.165 15.0514 35.215C15.4947 36.265 16.1014 37.175 16.8714 37.945C17.6647 38.715 18.5864 39.31 19.6364 39.73C20.7097 40.15 21.8881 40.36 23.1714 40.36C24.4547 40.36 25.6447 40.1267 26.7414 39.66C27.8381 39.17 28.8297 38.435 29.7164 37.455L32.6564 40.255C31.5131 41.585 30.1131 42.6 28.4564 43.3C26.7997 44 24.9564 44.35 22.9264 44.35ZM44.5769 44.35C42.6636 44.35 40.8319 44.0817 39.0819 43.545C37.3319 42.985 35.9436 42.2733 34.9169 41.41L36.4919 37.875C37.4719 38.645 38.6852 39.2867 40.1319 39.8C41.5786 40.3133 43.0602 40.57 44.5769 40.57C45.8602 40.57 46.8986 40.43 47.6919 40.15C48.4852 39.87 49.0686 39.4967 49.4419 39.03C49.8152 38.54 50.0019 37.9917 50.0019 37.385C50.0019 36.6383 49.7336 36.0433 49.1969 35.6C48.6602 35.1333 47.9602 34.7717 47.0969 34.515C46.2569 34.235 45.3119 33.9783 44.2619 33.745C43.2352 33.5117 42.1969 33.2433 41.1469 32.94C40.1202 32.6133 39.1752 32.205 38.3119 31.715C37.4719 31.2017 36.7836 30.525 36.2469 29.685C35.7102 28.845 35.4419 27.7717 35.4419 26.465C35.4419 25.135 35.7919 23.9217 36.4919 22.825C37.2152 21.705 38.3002 20.8183 39.7469 20.165C41.2169 19.4883 43.0719 19.15 45.3119 19.15C46.7819 19.15 48.2402 19.3367 49.6869 19.71C51.1336 20.0833 52.3936 20.62 53.4669 21.32L52.0319 24.855C50.9352 24.2017 49.8036 23.7233 48.6369 23.42C47.4702 23.0933 46.3502 22.93 45.2769 22.93C44.0169 22.93 42.9902 23.0817 42.1969 23.385C41.4269 23.6883 40.8552 24.085 40.4819 24.575C40.1319 25.065 39.9569 25.625 39.9569 26.255C39.9569 27.0017 40.2136 27.6083 40.7269 28.075C41.2636 28.5183 41.9519 28.8683 42.7919 29.125C43.6552 29.3817 44.6119 29.6383 45.6619 29.895C46.7119 30.1283 47.7502 30.3967 48.7769 30.7C49.8269 31.0033 50.7719 31.4 51.6119 31.89C52.4752 32.38 53.1636 33.045 53.6769 33.885C54.2136 34.725 54.4819 35.7867 54.4819 37.07C54.4819 38.3767 54.1202 39.59 53.3969 40.71C52.6969 41.8067 51.6119 42.6933 50.1419 43.37C48.6719 44.0233 46.8169 44.35 44.5769 44.35Z" fill="black"/>
</g>
<defs>
<clipPath id="clip0_1475_8316">
<rect width="64" height="64" fill="white"/>
</clipPath>
</defs>
</svg>
